<svg width="130" height="26" viewBox="0 0 130 26" fill="none" xmlns="http://www.w3.org/2000/svg">
<path d="M75.7738 9.47195C75.7834 9.29303 75.793 9.20656 75.793 9.1189C75.793 7.50737 75.7894 5.89703 75.799 4.2855C75.8002 4.06574 75.7221 3.94446 75.5432 3.82918C74.9968 3.47973 74.4624 3.11227 73.874 2.71959C76.0848 1.98708 78.2427 1.27137 80.4426 0.54126C80.4426 0.704575 80.4426 0.830664 80.4426 0.955552C80.4426 8.20026 80.4438 15.445 80.4378 22.6897C80.4378 22.9478 80.5075 23.14 80.6816 23.3297C81.2352 23.9325 81.7708 24.5522 82.3448 25.2006H75.8038V23.1856C75.7617 23.1568 75.7197 23.128 75.6777 23.0992C75.6321 23.1856 75.6032 23.2877 75.5396 23.3561C73.7035 25.3075 70.8851 25.9331 68.4054 24.9244C67.2874 24.4693 66.3819 23.7188 65.6326 22.7821C64.2817 21.0937 63.6008 19.14 63.4771 17.0025C63.3258 14.3906 63.9322 11.9757 65.5594 9.87904C66.6533 8.46924 68.0439 7.47975 69.8416 7.23838C72.0499 6.94057 73.9749 7.57462 75.5384 9.20416C75.5996 9.26781 75.6561 9.33746 75.775 9.47195H75.7738ZM75.793 16.2808C75.793 14.2897 75.7978 12.2999 75.7846 10.3089C75.7834 10.1276 75.7149 9.89945 75.5936 9.77577C75.1673 9.34226 74.7398 8.89675 74.2487 8.5461C73.0346 7.67669 71.6609 7.81839 70.5957 8.85712C70.0277 9.41071 69.6038 10.0628 69.2916 10.7821C67.8374 14.1372 67.7533 17.5428 68.9614 20.9833C69.3396 22.0592 69.8596 23.0619 70.7314 23.8317C71.6128 24.6098 72.6071 24.8152 73.7059 24.3264C74.454 23.9926 75.028 23.4402 75.5696 22.8446C75.7341 22.6644 75.8002 22.4723 75.799 22.2237C75.7894 20.2435 75.7942 18.2621 75.7942 16.2819L75.793 16.2808Z" fill="white"/>
<path d="M104.82 25.1996V23.1798C104.791 23.1581 104.763 23.1377 104.735 23.1161C104.673 23.2014 104.624 23.2974 104.551 23.3695C102.559 25.3353 100.225 25.8853 97.5811 24.9798C96.4175 24.5811 95.488 23.8102 94.7219 22.8627C93.0047 20.7372 92.3442 18.2731 92.4991 15.5796C92.6168 13.5165 93.2461 11.618 94.5166 9.96324C95.5733 8.58587 96.899 7.57716 98.6427 7.28055C100.903 6.89628 102.879 7.5015 104.508 9.15026C104.584 9.22832 104.661 9.30758 104.739 9.38443C104.745 9.39043 104.757 9.39164 104.805 9.40605C104.813 9.31718 104.826 9.23793 104.826 9.15747C104.826 7.52672 104.823 5.89597 104.832 4.26522C104.832 4.06708 104.761 3.95781 104.602 3.85574C104.05 3.49788 103.505 3.12802 102.897 2.72214C105.108 1.98842 107.262 1.27392 109.459 0.546204C109.459 0.707117 109.459 0.833206 109.459 0.958094C109.459 8.2016 109.459 15.4463 109.454 22.6898C109.454 22.936 109.515 23.1209 109.683 23.3046C110.243 23.9159 110.786 24.5427 111.367 25.2008H104.821L104.82 25.1996ZM104.825 16.2797C104.825 14.2887 104.829 12.2977 104.817 10.3067C104.817 10.1338 104.755 9.914 104.638 9.79872C104.187 9.3484 103.741 8.87407 103.221 8.51382C102.003 7.66842 100.655 7.83054 99.5961 8.87527C99.0245 9.43847 98.6006 10.1037 98.2884 10.8351C96.863 14.165 96.7777 17.543 97.9738 20.9546C98.3509 22.0305 98.8756 23.0248 99.7282 23.815C100.593 24.616 101.687 24.8009 102.757 24.3121C103.5 23.9723 104.073 23.4151 104.613 22.8183C104.771 22.6454 104.831 22.4592 104.829 22.2227C104.821 20.2413 104.825 18.2611 104.825 16.2797Z" fill="white"/>
<path d="M50.3063 7.34381V10.0721C50.4275 9.96525 50.5044 9.89921 50.5777 9.83076C51.7185 8.7536 52.9757 7.87938 54.5116 7.44348C57.647 6.55365 60.5159 8.53625 60.7632 11.7857C60.7848 12.0643 60.7957 12.3453 60.7957 12.6251C60.7981 15.9671 60.7993 19.3102 60.792 22.6522C60.792 22.9296 60.8569 23.1397 61.0502 23.3475C61.6014 23.9395 62.1274 24.5555 62.6966 25.1992H54.2703C54.3447 25.1043 54.3987 25.0275 54.4612 24.9578C54.9715 24.3802 55.4879 23.8086 55.9887 23.2226C56.0763 23.1205 56.14 22.9596 56.1412 22.8263C56.1496 19.3234 56.1556 15.8218 56.1436 12.3189C56.1376 10.4552 54.6065 8.98656 52.8617 9.14027C51.8722 9.22673 51.0904 9.72388 50.4155 10.4132C50.3495 10.4804 50.3135 10.6077 50.3135 10.7074C50.3087 14.7602 50.3075 18.8131 50.3159 22.8659C50.3159 22.9884 50.3927 23.1313 50.4768 23.2286C51.0388 23.8795 51.6116 24.5195 52.212 25.1992H43.7797C43.8565 25.1043 43.919 25.0227 43.9862 24.9458C44.4954 24.3682 45.0117 23.7954 45.5125 23.2094C45.6001 23.1073 45.6638 22.9464 45.665 22.8131C45.6734 18.98 45.6698 15.1481 45.6758 11.315C45.6758 11.1193 45.6086 11.0076 45.4476 10.9043C44.9673 10.5981 44.4966 10.2763 44.0222 9.95925C43.9418 9.90521 43.8649 9.84517 43.7556 9.76471C45.9556 8.95174 48.1159 8.15438 50.3063 7.34501V7.34381Z" fill="white"/>
<path d="M43.0279 25.214H36.4677V21.0855C36.4461 21.0819 36.4244 21.0771 36.4028 21.0735C36.356 21.1767 36.3068 21.28 36.2611 21.3845C35.6739 22.7414 34.8333 23.8942 33.5076 24.6075C30.1128 26.434 25.6781 24.73 24.8015 20.491C23.9657 16.443 26.9798 12.8597 31.1287 12.9257C32.0137 12.9401 32.8916 13.0206 33.6793 13.4769C33.9627 13.6414 34.2209 13.8504 34.5115 14.0533C34.4971 14.0077 34.4947 13.9681 34.4755 13.944C33.4343 12.6483 32.1722 11.6744 30.4815 11.4499C29.6733 11.3418 28.8447 11.3886 28.0245 11.3706C27.6991 11.3634 27.3737 11.3694 26.969 11.3694C27.1731 11.0728 27.3208 10.8254 27.4974 10.6033C28.8699 8.87527 30.694 7.87376 32.8135 7.40543C34.7409 6.97913 36.6586 7.04638 38.4779 7.89177C40.2395 8.71075 41.1077 10.135 41.1101 12.0743C41.1161 15.636 41.1137 19.1989 41.1065 22.7606C41.1065 22.9804 41.1774 23.1353 41.3179 23.2926C41.8787 23.9135 42.4299 24.5439 43.0243 25.214H43.0279ZM36.4593 19.1917C36.3536 18.5937 36.3032 17.9801 36.1302 17.4025C35.7003 15.9651 34.9978 14.6898 33.7105 13.8252C32.1446 12.7744 30.3578 13.2175 29.4908 14.8855C28.8627 16.0948 28.8039 17.3797 29.1161 18.6826C29.51 20.3289 30.2905 21.7435 31.7339 22.7042C33.271 23.7261 35.0243 23.2494 35.86 21.609C36.2455 20.8525 36.386 20.0419 36.4581 19.1905L36.4593 19.1917ZM36.4437 17.1611C36.4509 17.1155 36.4641 17.0686 36.4629 17.023C36.4581 14.6021 36.4581 12.1812 36.4425 9.76029C36.4389 9.24753 36.326 8.74557 36.0618 8.29406C35.8432 7.92059 35.525 7.68763 35.0879 7.61678C34.4911 7.51951 33.9519 7.65761 33.474 8.01306C32.3392 8.85725 31.9429 10.1097 31.5838 11.4042C34.2065 12.503 35.6139 14.5829 36.4425 17.1611H36.4437Z" fill="white"/>
<path d="M22.9245 5.29068C20.8843 5.29068 18.8837 5.29308 16.8831 5.28348C16.7738 5.28348 16.6489 5.18981 16.5589 5.10815C15.2127 3.89049 13.7441 2.86377 12.0437 2.20211C10.7191 1.68694 9.35017 1.40835 7.93077 1.65572C5.53629 2.07241 4.11328 3.57827 3.4264 5.83466C2.84159 7.75242 2.97728 9.68938 3.51526 11.5783C4.8494 16.264 7.5489 19.9554 11.7423 22.4892C12.9935 23.2457 14.3709 23.6984 15.8455 23.8113C18.7804 24.0359 21.0584 22.4856 21.9038 19.6576C21.9927 19.3598 22.108 19.2577 22.4118 19.2841C22.7492 19.313 23.0915 19.2913 23.5057 19.2913C22.664 20.6519 21.6685 21.8047 20.4448 22.7534C18.0791 24.5859 15.3892 25.4553 12.4015 25.3952C6.07427 25.2644 0.973071 20.5234 0.126475 14.506C-0.74534 8.30721 2.97128 2.48911 8.76776 0.626595C14.7204 -1.28635 20.2911 1.44077 22.9245 5.29068Z" fill="white"/>
<path d="M129.13 11.4163H122.382C123.056 11.5953 123.65 11.7249 124.227 11.9099C125.991 12.4743 127.574 13.3233 128.741 14.8243C130.476 17.0555 130.411 20.3602 128.588 22.5193C127.317 24.0264 125.665 24.8514 123.758 25.1972C121.398 25.6271 119.097 25.4482 116.977 24.2474C113.993 22.5578 112.364 19.9712 112.282 16.5319C112.171 11.9267 115.278 8.13441 119.814 7.31063C123.369 6.66458 126.887 8.1164 129.004 11.2002C129.037 11.2494 129.064 11.3022 129.129 11.4151L129.13 11.4163ZM116.265 11.4343C116.254 11.5412 116.242 11.6193 116.238 11.6973C116.181 12.8405 116.244 13.9765 116.476 15.0993C116.948 17.3701 117.892 19.408 119.522 21.0831C120.83 22.4281 122.398 23.2387 124.314 23.3263C127.703 23.4836 130.136 20.2329 129.472 17.0783C129.148 15.5388 128.2 14.4076 126.939 13.525C125.13 12.2581 123.081 11.6397 120.905 11.4896C119.421 11.3875 117.927 11.4331 116.437 11.4139C116.389 11.4139 116.34 11.4247 116.265 11.4343ZM116.29 11.1101H123.689C123.666 11.0212 123.654 10.9528 123.631 10.8904C123.295 9.9645 122.751 9.18035 121.961 8.59434C120.886 7.79818 119.682 7.56761 118.41 7.99992C116.963 8.49347 116.505 9.70872 116.289 11.1101H116.29Z" fill="white"/>
<path d="M91.5601 25.208H83.1182C83.5445 24.7265 83.9071 24.2449 84.343 23.8426C84.8918 23.3347 85.0515 22.7607 85.0443 22.0162C85.0059 18.3752 85.0251 14.733 85.0323 11.0909C85.0323 10.8555 84.9699 10.7102 84.7645 10.5817C84.2241 10.2431 83.7006 9.87921 83.1074 9.48293C85.3193 8.76122 87.4664 8.06113 89.6772 7.33942C89.6772 7.50633 89.6772 7.63002 89.6772 7.75371C89.6772 12.736 89.6784 17.7183 89.6724 22.7006C89.6724 22.948 89.7372 23.1329 89.9066 23.3155C90.4085 23.8595 90.8924 24.4203 91.3824 24.975C91.4388 25.0387 91.4881 25.1107 91.5625 25.2068L91.5601 25.208Z" fill="white"/>
<path d="M87.2394 5.85619C85.7636 5.85379 84.5928 4.67576 84.6 3.20112C84.6072 1.7505 85.796 0.57367 87.2478 0.579674C88.7285 0.585678 89.8873 1.7565 89.8825 3.23955C89.8777 4.70098 88.7069 5.85979 87.2394 5.85619Z" fill="white"/>
</svg>
